<svg xmlns="http://www.w3.org/2000/svg" width="39" height="39" viewBox="0 0 39 39"><defs><clipPath id="4srha"><path fill="#fff" d="M19.5 0C30.27 0 39 8.73 39 19.5S30.27 39 19.5 39 0 30.27 0 19.5 8.73 0 19.5 0z"/></clipPath></defs><g><g><path fill="#e4edf5" d="M19.5 0C30.27 0 39 8.73 39 19.5S30.27 39 19.5 39 0 30.27 0 19.5 8.73 0 19.5 0z"/><path fill="none" stroke="#0842b7" stroke-miterlimit="20" stroke-width="2" d="M19.5 0C30.27 0 39 8.73 39 19.5S30.27 39 19.5 39 0 30.27 0 19.5 8.73 0 19.5 0z" clip-path="url(&quot;#4srha&quot;)"/></g><g><path fill="#0842b7" d="M15 18.759h1.611v9.24h3.578v-9.24h2.528l.686-2.985h-3.362s-.262-1.24.236-1.704c.257-.239.717-.42 1.309-.42.6 0 1.083.308 1.69.648L24 11.671c-1.115-.301-1.827-.673-2.99-.673-1.135 0-1.789.175-2.53.522-.742.348-1.079.963-1.355 1.515-.276.552-.414 1.226-.414 2.35v.389h-1.662z"/></g></g></svg>