<svg xmlns="http://www.w3.org/2000/svg" width="39" height="39" viewBox="0 0 39 39"><defs><clipPath id="99ira"><path fill="#fff" d="M19.5 0C30.27 0 39 8.73 39 19.5S30.27 39 19.5 39 0 30.27 0 19.5 8.73 0 19.5 0z"/></clipPath></defs><g><g><path fill="#e4edf5" d="M19.5 0C30.27 0 39 8.73 39 19.5S30.27 39 19.5 39 0 30.27 0 19.5 8.73 0 19.5 0z"/><path fill="none" stroke="#0842b7" stroke-miterlimit="20" stroke-width="2" d="M19.5 0C30.27 0 39 8.73 39 19.5S30.27 39 19.5 39 0 30.27 0 19.5 8.73 0 19.5 0z" clip-path="url(&quot;#99ira&quot;)"/></g><g><path fill="#0842b7" d="M26.988 14.9v9.197c0 1.598-1.3 2.9-2.899 2.9h-9.2a2.903 2.903 0 0 1-2.898-2.9V14.9c0-1.599 1.3-2.899 2.898-2.899h9.2c1.598 0 2.899 1.3 2.899 2.9zm-4.278-1.165l.009 2.543 2.533-.009v-2.541h-.331zM16.85 19.5a2.641 2.641 0 0 0 2.64 2.638 2.642 2.642 0 0 0 2.639-2.638c0-.575-.187-1.106-.5-1.54a2.638 2.638 0 0 0-2.14-1.099c-.88 0-1.66.435-2.14 1.1-.312.433-.5.964-.5 1.54zm8.676-1.54h-2.239c.193.476.303.995.303 1.54 0 2.259-1.84 4.1-4.1 4.1a4.106 4.106 0 0 1-4.101-4.1c0-.545.109-1.064.302-1.54h-2.239v6.138a1.44 1.44 0 0 0 1.437 1.439h9.2a1.44 1.44 0 0 0 1.437-1.439z"/></g></g></svg>