<svg xmlns="http://www.w3.org/2000/svg" width="15" height="15" viewBox="0 0 15 15"><g><g><path fill="#0842b7" d="M14.988 2.9v9.197c0 1.598-1.3 2.9-2.899 2.9h-9.2a2.903 2.903 0 0 1-2.898-2.9V2.9C-.009 1.3 1.291 0 2.89 0h9.2c1.598 0 2.898 1.3 2.898 2.9zM10.71 1.734l.009 2.543 2.533-.009V1.728h-.331zM4.85 7.5a2.641 2.641 0 0 0 2.64 2.638 2.642 2.642 0 0 0 2.639-2.638c0-.575-.187-1.106-.5-1.54A2.638 2.638 0 0 0 7.49 4.86c-.88 0-1.66.435-2.14 1.1-.312.433-.5.964-.5 1.54zm8.676-1.54h-2.239c.193.476.303.995.303 1.54 0 2.259-1.84 4.1-4.1 4.1a4.106 4.106 0 0 1-4.101-4.1c0-.545.109-1.064.302-1.54H1.452v6.138a1.44 1.44 0 0 0 1.437 1.439h9.2a1.44 1.44 0 0 0 1.437-1.439z"/></g></g></svg>