<svg xmlns="http://www.w3.org/2000/svg" width="39" height="39" viewBox="0 0 39 39"><defs><clipPath id="enzia"><path fill="#fff" d="M19.5 0C30.27 0 39 8.73 39 19.5S30.27 39 19.5 39 0 30.27 0 19.5 8.73 0 19.5 0z"/></clipPath></defs><g><g><path fill="#e4edf5" d="M19.5 0C30.27 0 39 8.73 39 19.5S30.27 39 19.5 39 0 30.27 0 19.5 8.73 0 19.5 0z"/><path fill="none" stroke="#0842b7" stroke-miterlimit="20" stroke-width="2" d="M19.5 0C30.27 0 39 8.73 39 19.5S30.27 39 19.5 39 0 30.27 0 19.5 8.73 0 19.5 0z" clip-path="url(&quot;#enzia&quot;)"/></g><g><path fill="#0842b7" d="M25 18.407a.889.889 0 0 1-.297.663.931.931 0 0 1-.675.232.908.908 0 0 1-.625-.303l-2.49-2.748v8.855A.903.903 0 0 1 20 26a.903.903 0 0 1-.912-.893v-8.855L16.597 19a.923.923 0 0 1-1.29.075.884.884 0 0 1-.079-1.26l4.09-4.516A.927.927 0 0 1 20 13c.267 0 .525.115.69.308l4.08 4.506c.152.179.228.38.228.593z"/></g></g></svg>