<svg xmlns="http://www.w3.org/2000/svg" width="39" height="39" viewBox="0 0 39 39"><defs><clipPath id="30vua"><path fill="#fff" d="M19.5 0C30.27 0 39 8.73 39 19.5S30.27 39 19.5 39 0 30.27 0 19.5 8.73 0 19.5 0z"/></clipPath></defs><g><g><path fill="#e4edf5" d="M19.5 0C30.27 0 39 8.73 39 19.5S30.27 39 19.5 39 0 30.27 0 19.5 8.73 0 19.5 0z"/><path fill="none" stroke="#0842b7" stroke-miterlimit="20" stroke-width="2" d="M19.5 0C30.27 0 39 8.73 39 19.5S30.27 39 19.5 39 0 30.27 0 19.5 8.73 0 19.5 0z" clip-path="url(&quot;#30vua&quot;)"/></g><g><path fill="#0842b7" d="M24.992 21.703c0 .696-.13 1.307-.388 1.833a3.737 3.737 0 0 1-1.044 1.31 4.781 4.781 0 0 1-1.705.882c-.619.176-1.406.264-2.36.264h-5.506V11.988h4.86c1.01 0 1.774.038 2.295.118.52.078 1.008.241 1.464.494.493.268.861.63 1.104 1.081.244.453.365.971.365 1.562 0 .684-.167 1.29-.503 1.823a2.97 2.97 0 0 1-1.39 1.176v.075c.85.181 1.53.555 2.041 1.115.511.561.767 1.318.767 2.27zm-4.425-5.756c0-.224-.057-.457-.171-.696a1.041 1.041 0 0 0-.532-.517 2.187 2.187 0 0 0-.808-.165c-.311-.009-.774-.014-1.39-.014h-.24v2.963h.434c.59 0 1.005-.005 1.242-.018.237-.014.482-.08.735-.198.277-.133.468-.313.573-.546a1.95 1.95 0 0 0 .157-.809zm.868 5.691c0-.433-.086-.77-.259-1.016-.172-.245-.431-.43-.776-.555-.21-.081-.497-.128-.864-.137-.366-.009-.857-.015-1.473-.015h-.638v3.51h.185c.9 0 1.521-.007 1.866-.02a2.905 2.905 0 0 0 1.054-.253c.314-.14.543-.34.688-.607.144-.268.217-.568.217-.907z"/></g></g></svg>