<svg xmlns="http://www.w3.org/2000/svg" width="39" height="39" viewBox="0 0 39 39"><defs><clipPath id="ocv4a"><path fill="#fff" d="M19.5 0C30.27 0 39 8.73 39 19.5S30.27 39 19.5 39 0 30.27 0 19.5 8.73 0 19.5 0z"/></clipPath></defs><g><g><path fill="#e4edf5" d="M19.5 0C30.27 0 39 8.73 39 19.5S30.27 39 19.5 39 0 30.27 0 19.5 8.73 0 19.5 0z"/><path fill="none" stroke="#0842b7" stroke-miterlimit="20" stroke-width="2" d="M19.5 0C30.27 0 39 8.73 39 19.5S30.27 39 19.5 39 0 30.27 0 19.5 8.73 0 19.5 0z" clip-path="url(&quot;#ocv4a&quot;)"/></g><g><path fill="#0842b7" d="M28.999 17.9V21.1c0 2.027-.329 3.198-1.1 3.915-.752.7-1.914.985-4.01.985H15.11C10.79 26 10 24.35 10 21.1V17.9c0-1.678 0-2.89.666-3.713.683-.844 1.97-1.188 4.444-1.188h8.778c2.418 0 3.685.322 4.37 1.116.69.796.74 2.015.74 3.785zm-6.473 1.512a.594.594 0 0 0-.33-.528l-3.986-2.012a.628.628 0 0 0-.6.019.595.595 0 0 0-.296.51v4.037c0 .209.112.402.296.51a.628.628 0 0 0 .601.019l3.986-2.026a.594.594 0 0 0 .33-.529z"/></g></g></svg>