<svg xmlns="http://www.w3.org/2000/svg" width="19" height="13" viewBox="0 0 19 13"><g><g><path fill="#0842b7" d="M18.999 4.9V8.1c0 2.027-.329 3.198-1.1 3.915-.752.7-1.914.985-4.01.985H5.11C.79 13 0 11.35 0 8.1V4.9c0-1.678 0-2.89.666-3.713C1.349.344 2.636 0 5.11 0h8.778c2.418 0 3.685.322 4.37 1.116.69.796.74 2.015.74 3.785zm-6.473 1.512a.594.594 0 0 0-.33-.528L8.21 3.872a.628.628 0 0 0-.6.019.595.595 0 0 0-.296.51v4.037c0 .209.112.402.296.51a.628.628 0 0 0 .601.019l3.986-2.026a.594.594 0 0 0 .33-.529z"/></g></g></svg>